<svg width="108" height="24" viewBox="0 0 108 24" fill="none" xmlns="http://www.w3.org/2000/svg">
<path fill-rule="evenodd" clip-rule="evenodd" d="M1 7.45455C1 3.90226 3.90226 1 7.45455 1H16.5455C20.0977 1 23 3.90226 23 7.45455V16.5455C23 20.0977 20.0977 23 16.5455 23H7.45455C3.90226 23 1 20.0977 1 16.5455V7.45455ZM7.45455 3C5.00683 3 3 5.00683 3 7.45455V16.5455C3 18.9932 5.00683 21 7.45455 21H16.5455C18.9932 21 21 18.9932 21 16.5455V7.45455C21 5.00683 18.9932 3 16.5455 3H7.45455ZM12 15C13.6569 15 15 13.6569 15 12C15 10.3431 13.6569 9 12 9C10.3431 9 9 10.3431 9 12C9 13.6569 10.3431 15 12 15ZM12 17C14.7614 17 17 14.7614 17 12C17 9.23858 14.7614 7 12 7C9.23858 7 7 9.23858 7 12C7 14.7614 9.23858 17 12 17ZM17 7C17.5523 7 18 6.55228 18 6C18 5.44771 17.5523 5 17 5C16.4477 5 16 5.44771 16 6C16 6.55228 16.4477 7 17 7Z" fill="white" fill-opacity="0.63"/>
<path d="M65 6.01262C64.7129 6.4417 64.3882 6.84184 64.0259 7.21304C63.6636 7.58423 63.2705 7.92307 62.8467 8.22956C62.8535 8.32491 62.8586 8.41856 62.8621 8.51051C62.8655 8.60246 62.8672 8.69611 62.8672 8.79146C62.8672 9.64963 62.7749 10.4976 62.5903 11.3353C62.4058 12.1731 62.1392 12.9836 61.7905 13.7668C61.2847 14.9042 60.6523 15.9208 59.8936 16.8164C59.1348 17.712 58.2751 18.4697 57.3147 19.0895C56.3543 19.7093 55.3066 20.1827 54.1719 20.5096C53.0371 20.8365 51.8477 21 50.6035 21C49.4277 21 48.281 20.8382 47.1633 20.5147C46.0457 20.1912 44.9912 19.7093 44 19.0691C44.335 19.11 44.6768 19.1304 45.0254 19.1304C46.0029 19.1304 46.948 18.9738 47.8606 18.6605C48.7732 18.3471 49.6123 17.8908 50.3779 17.2915C49.9199 17.2846 49.479 17.208 49.0552 17.0616C48.6313 16.9152 48.2434 16.7108 47.8913 16.4486C47.5393 16.1864 47.2317 15.8748 46.9685 15.5138C46.7053 15.1528 46.5019 14.7544 46.3584 14.3185C46.4951 14.3389 46.6301 14.356 46.7634 14.3696C46.8967 14.3832 47.0317 14.39 47.1684 14.39C47.5513 14.39 47.9272 14.3389 48.2964 14.2368C47.7905 14.1346 47.3274 13.9541 46.907 13.6953C46.4866 13.4365 46.1225 13.1215 45.8149 12.7503C45.5073 12.3791 45.2681 11.9602 45.0972 11.4937C44.9263 11.0271 44.8408 10.5385 44.8408 10.0276V9.97656C45.4424 10.3171 46.0952 10.4976 46.7993 10.518C46.4985 10.3137 46.2302 10.0804 45.9944 9.81821C45.7585 9.55599 45.5586 9.27163 45.3945 8.96514C45.2305 8.65865 45.104 8.33514 45.0151 7.99459C44.9263 7.65405 44.8818 7.30329 44.8818 6.94231C44.8818 6.5609 44.9297 6.188 45.0254 5.82362C45.1211 5.45924 45.2681 5.11358 45.4663 4.78666C46.0132 5.46094 46.6216 6.06541 47.2915 6.60006C47.9614 7.13472 48.6741 7.59275 49.4294 7.97416C50.1848 8.35557 50.9761 8.65695 51.8032 8.87831C52.6304 9.09966 53.478 9.23077 54.3462 9.27164C54.3052 9.11498 54.2761 8.95323 54.259 8.78636C54.2419 8.61949 54.2334 8.45433 54.2334 8.29087C54.2334 7.69832 54.3462 7.14153 54.5718 6.62049C54.7974 6.09946 55.105 5.64483 55.4946 5.25661C55.8843 4.86839 56.3406 4.5619 56.8635 4.33714C57.3865 4.11238 57.9453 4 58.54 4C59.1416 4 59.7141 4.11749 60.2576 4.35246C60.801 4.58744 61.2778 4.92288 61.688 5.35877C62.1733 5.26342 62.6433 5.1289 63.0979 4.95523C63.5525 4.78155 63.9917 4.56871 64.4155 4.31671C64.2583 4.8139 64.0173 5.26683 63.6926 5.67548C63.3679 6.08413 62.98 6.42127 62.5288 6.6869C63.3901 6.58474 64.2139 6.35998 65 6.01262L65 6.01262Z" fill="white" fill-opacity="0.63"/>
<path d="M104.052 3H87.9476C87.7018 3.0166 87.4703 3.12177 87.296 3.29602C87.1218 3.47027 87.0166 3.70178 87 3.94765V20.0524C87.0014 20.3033 87.1017 20.5435 87.2791 20.7209C87.4565 20.8983 87.6967 20.9986 87.9476 21H96.5686V13.9895H94.2942V11.3372H96.6628V9.34765C96.6118 8.87052 96.6666 8.388 96.8233 7.93447C96.9801 7.48095 97.2349 7.06757 97.5697 6.72379C97.9045 6.38002 98.311 6.1143 98.7602 5.94558C99.2094 5.77685 99.6903 5.70927 100.169 5.74765C101.116 5.74765 101.969 5.84188 102.252 5.84188V8.30577H100.831C99.6942 8.30577 99.5047 8.87435 99.5047 9.63247V11.3372H102.157L101.778 14.0848H99.4105V21H104.052C104.303 20.9986 104.543 20.8983 104.721 20.7209C104.898 20.5435 104.999 20.3033 105 20.0524V3.94765C104.983 3.70178 104.878 3.47027 104.704 3.29602C104.53 3.12177 104.298 3.0166 104.052 3V3Z" fill="white" fill-opacity="0.63"/>
</svg>
