<svg width="21" height="13" viewBox="0 0 21 13" fill="none" xmlns="http://www.w3.org/2000/svg">
<path d="M11.8111 0.145201C11.4151 0.439372 11.4149 1.03219 11.8107 1.32661L17.6487 5.66915L0.649999 5.66915C0.291014 5.66915 -2.99816e-07 5.96017 -2.84124e-07 6.31915C-2.68432e-07 6.67814 0.291015 6.96915 0.65 6.96915L17.6488 6.96915L11.8107 11.3117C11.4149 11.6061 11.4151 12.1989 11.8111 12.4931C12.0717 12.6867 12.4283 12.6867 12.6889 12.4931L19.9194 7.1219C20.4576 6.72207 20.4576 5.91624 19.9194 5.51641L12.6889 0.145201C12.4283 -0.0483804 12.0717 -0.0483804 11.8111 0.145201Z" fill="#989898"/>
</svg>
