<svg width="1140" height="42" viewBox="0 0 1140 42" fill="none" xmlns="http://www.w3.org/2000/svg">
<line x1="2" y1="37.5" x2="1140" y2="37.5001" stroke="#6A6A6A"/>
<line x1="-4.37114e-08" y1="37.5" x2="143" y2="37.5" stroke="white"/>
<path d="M130.375 5.87256V18H128.375V8.24658L125.411 9.25098V7.59912L130.134 5.87256H130.375ZM136.186 16.4229H136.352C137.115 16.4229 137.752 16.3232 138.261 16.124C138.775 15.9193 139.185 15.637 139.489 15.2773C139.794 14.9176 140.012 14.4943 140.145 14.0073C140.278 13.5203 140.344 12.9919 140.344 12.4219V10.3384C140.344 9.84587 140.292 9.41423 140.187 9.04346C140.087 8.66715 139.943 8.35449 139.755 8.10547C139.572 7.85091 139.359 7.65999 139.116 7.53271C138.878 7.40544 138.62 7.3418 138.344 7.3418C138.039 7.3418 137.765 7.41097 137.522 7.54932C137.284 7.68213 137.082 7.86751 136.916 8.10547C136.756 8.33789 136.631 8.61182 136.542 8.92725C136.459 9.23714 136.418 9.56917 136.418 9.92334C136.418 10.2554 136.457 10.5763 136.534 10.8862C136.617 11.1906 136.739 11.4618 136.899 11.6997C137.06 11.9377 137.262 12.1258 137.505 12.2642C137.749 12.4025 138.034 12.4717 138.36 12.4717C138.67 12.4717 138.955 12.4136 139.215 12.2974C139.475 12.1756 139.702 12.0124 139.896 11.8076C140.09 11.6029 140.242 11.3732 140.353 11.1187C140.463 10.8641 140.524 10.604 140.535 10.3384L141.299 10.5708C141.299 10.9914 141.21 11.4064 141.033 11.8159C140.862 12.2199 140.621 12.5907 140.311 12.9282C140.007 13.2603 139.65 13.5259 139.24 13.7251C138.836 13.9243 138.396 14.0239 137.92 14.0239C137.345 14.0239 136.836 13.916 136.393 13.7002C135.956 13.4788 135.591 13.18 135.297 12.8037C135.01 12.4274 134.794 11.9958 134.65 11.5088C134.506 11.0218 134.434 10.5099 134.434 9.97314C134.434 9.39209 134.523 8.84701 134.7 8.33789C134.877 7.82878 135.134 7.38053 135.472 6.99316C135.809 6.60026 136.219 6.2959 136.7 6.08008C137.187 5.85872 137.738 5.74805 138.352 5.74805C139.005 5.74805 139.578 5.87533 140.07 6.12988C140.563 6.38444 140.978 6.73584 141.315 7.18408C141.653 7.63232 141.908 8.15251 142.079 8.74463C142.251 9.33675 142.336 9.97314 142.336 10.6538V11.3594C142.336 12.0732 142.273 12.7622 142.146 13.4263C142.018 14.0848 141.811 14.6963 141.523 15.2607C141.241 15.8197 140.867 16.3122 140.402 16.7383C139.943 17.1589 139.379 17.4881 138.709 17.7261C138.045 17.9585 137.265 18.0747 136.368 18.0747H136.186V16.4229ZM152.563 13.6919V15.2856H143.847L143.781 14.082L148.994 5.91406H150.596L148.861 8.88574L145.864 13.6919H152.563ZM151.052 5.91406V18H149.052V5.91406H151.052ZM161.777 10.9443V12.9199C161.777 13.8662 161.683 14.6742 161.495 15.3438C161.312 16.0078 161.046 16.5474 160.698 16.9624C160.349 17.3774 159.931 17.6818 159.444 17.8755C158.963 18.0692 158.423 18.166 157.826 18.166C157.35 18.166 156.907 18.1051 156.498 17.9834C156.094 17.8617 155.728 17.6707 155.402 17.4106C155.075 17.1506 154.796 16.8158 154.563 16.4062C154.337 15.9912 154.16 15.4959 154.032 14.9204C153.91 14.3449 153.85 13.6781 153.85 12.9199V10.9443C153.85 9.99251 153.944 9.1901 154.132 8.53711C154.32 7.87858 154.588 7.34456 154.937 6.93506C155.286 6.52002 155.701 6.21842 156.182 6.03027C156.669 5.84212 157.211 5.74805 157.809 5.74805C158.291 5.74805 158.733 5.80892 159.137 5.93066C159.547 6.04688 159.912 6.23226 160.233 6.48682C160.559 6.74137 160.836 7.0734 161.063 7.48291C161.295 7.88688 161.472 8.37663 161.594 8.95215C161.716 9.52214 161.777 10.1862 161.777 10.9443ZM159.776 13.2021V10.6455C159.776 10.1641 159.749 9.74072 159.693 9.37549C159.638 9.00472 159.555 8.69206 159.444 8.4375C159.339 8.17741 159.206 7.96712 159.046 7.80664C158.885 7.64062 158.703 7.52165 158.498 7.44971C158.293 7.37223 158.064 7.3335 157.809 7.3335C157.499 7.3335 157.222 7.39437 156.979 7.51611C156.736 7.63232 156.531 7.82048 156.365 8.08057C156.199 8.34066 156.071 8.68376 155.983 9.10986C155.9 9.53044 155.858 10.0423 155.858 10.6455V13.2021C155.858 13.6891 155.886 14.118 155.941 14.4888C155.997 14.8595 156.08 15.1777 156.19 15.4434C156.301 15.7035 156.434 15.9193 156.589 16.0908C156.749 16.2568 156.932 16.3786 157.137 16.4561C157.347 16.5335 157.577 16.5723 157.826 16.5723C158.141 16.5723 158.421 16.5114 158.664 16.3896C158.908 16.2679 159.112 16.0742 159.278 15.8086C159.444 15.5374 159.569 15.186 159.652 14.7544C159.735 14.3228 159.776 13.8053 159.776 13.2021Z" fill="white"/>
<path d="M224.083 6.29199V17H223.211V7.39795L220.311 8.47461V7.64697L223.937 6.29199H224.083ZM229.532 16.3115H229.723C230.499 16.3115 231.148 16.1992 231.671 15.9746C232.193 15.7451 232.611 15.4302 232.923 15.0298C233.241 14.6245 233.468 14.1509 233.604 13.6089C233.741 13.0669 233.81 12.4785 233.81 11.8438V10.3569C233.81 9.79541 233.749 9.30225 233.626 8.87744C233.504 8.45264 233.331 8.09863 233.106 7.81543C232.882 7.52734 232.616 7.31006 232.308 7.16357C232.005 7.01709 231.668 6.94385 231.297 6.94385C230.931 6.94385 230.599 7.02197 230.301 7.17822C230.008 7.33447 229.759 7.55176 229.554 7.83008C229.354 8.10352 229.198 8.41846 229.085 8.7749C228.978 9.12646 228.924 9.5 228.924 9.89551C228.924 10.2568 228.973 10.6084 229.071 10.9502C229.173 11.2871 229.322 11.5923 229.518 11.8657C229.713 12.1343 229.952 12.3491 230.235 12.5103C230.523 12.6665 230.855 12.7446 231.231 12.7446C231.656 12.7446 232.032 12.6641 232.359 12.5029C232.691 12.3418 232.972 12.1343 233.202 11.8804C233.436 11.6216 233.614 11.3433 233.736 11.0454C233.863 10.7427 233.932 10.4497 233.941 10.1665L234.381 10.1592C234.381 10.6035 234.298 11.0283 234.132 11.4336C233.971 11.834 233.741 12.1904 233.443 12.5029C233.15 12.8105 232.806 13.0547 232.411 13.2354C232.015 13.416 231.588 13.5063 231.129 13.5063C230.631 13.5063 230.189 13.4087 229.803 13.2134C229.422 13.0132 229.103 12.7446 228.844 12.4077C228.59 12.0659 228.397 11.6826 228.265 11.2578C228.133 10.833 228.067 10.3911 228.067 9.93213C228.067 9.41943 228.138 8.93848 228.28 8.48926C228.426 8.03516 228.639 7.63721 228.917 7.29541C229.195 6.94873 229.532 6.67773 229.928 6.48242C230.328 6.28711 230.78 6.18945 231.283 6.18945C231.854 6.18945 232.352 6.29443 232.777 6.50439C233.202 6.70947 233.553 7.00244 233.832 7.3833C234.115 7.76416 234.325 8.21338 234.461 8.73096C234.603 9.24854 234.674 9.81982 234.674 10.4448V11.2871C234.674 11.917 234.625 12.52 234.527 13.0962C234.43 13.6724 234.266 14.2046 234.037 14.6929C233.812 15.1763 233.509 15.5962 233.128 15.9526C232.748 16.3091 232.276 16.5874 231.715 16.7876C231.153 16.9829 230.489 17.0806 229.723 17.0806H229.525L229.532 16.3115ZM237.933 11.7266L237.245 11.5288L237.765 6.33594H243.097V7.15625H238.512L238.138 10.7451C238.324 10.6133 238.592 10.4839 238.944 10.3569C239.3 10.2251 239.701 10.1592 240.145 10.1592C240.619 10.1592 241.048 10.2397 241.434 10.4009C241.825 10.5571 242.159 10.7866 242.438 11.0894C242.716 11.3872 242.931 11.7485 243.082 12.1733C243.233 12.5933 243.309 13.0693 243.309 13.6016C243.309 14.1143 243.246 14.5854 243.119 15.0151C242.992 15.4448 242.799 15.8208 242.54 16.1431C242.281 16.4604 241.952 16.707 241.551 16.8828C241.151 17.0586 240.675 17.1465 240.123 17.1465C239.698 17.1465 239.298 17.0879 238.922 16.9707C238.551 16.8486 238.219 16.6655 237.926 16.4214C237.633 16.1772 237.394 15.8696 237.208 15.4985C237.027 15.1274 236.915 14.6929 236.871 14.1948H237.713C237.772 14.6733 237.901 15.0762 238.102 15.4033C238.302 15.7305 238.57 15.9771 238.907 16.1431C239.249 16.3091 239.654 16.3921 240.123 16.3921C240.504 16.3921 240.836 16.3311 241.119 16.209C241.407 16.0869 241.646 15.9087 241.837 15.6743C242.032 15.4351 242.179 15.1445 242.276 14.8027C242.379 14.4561 242.43 14.0605 242.43 13.6162C242.43 13.2354 242.376 12.8862 242.269 12.5688C242.162 12.2466 242.003 11.9658 241.793 11.7266C241.588 11.4824 241.334 11.2944 241.031 11.1626C240.729 11.0308 240.382 10.9648 239.991 10.9648C239.483 10.9648 239.078 11.0332 238.775 11.1699C238.478 11.3066 238.197 11.4922 237.933 11.7266ZM251.395 10.7524V12.5469C251.395 13.3281 251.322 14.0093 251.175 14.5903C251.029 15.1665 250.814 15.645 250.531 16.0259C250.252 16.4019 249.911 16.6826 249.505 16.8682C249.105 17.0537 248.646 17.1465 248.128 17.1465C247.718 17.1465 247.342 17.0879 247 16.9707C246.659 16.8535 246.354 16.6753 246.085 16.436C245.821 16.1919 245.597 15.8867 245.411 15.5205C245.226 15.1543 245.084 14.7246 244.986 14.2314C244.889 13.7334 244.84 13.1719 244.84 12.5469V10.7524C244.84 9.96631 244.913 9.2876 245.06 8.71631C245.211 8.14502 245.426 7.67139 245.704 7.29541C245.987 6.91943 246.332 6.64111 246.737 6.46045C247.142 6.2749 247.601 6.18213 248.114 6.18213C248.524 6.18213 248.9 6.24316 249.242 6.36523C249.588 6.48242 249.894 6.6582 250.157 6.89258C250.426 7.12695 250.65 7.42725 250.831 7.79346C251.017 8.15479 251.156 8.58203 251.249 9.0752C251.346 9.56836 251.395 10.1274 251.395 10.7524ZM250.523 12.6494V10.6426C250.523 10.1592 250.489 9.71973 250.421 9.32422C250.357 8.92871 250.262 8.58203 250.135 8.28418C250.008 7.98633 249.847 7.7373 249.652 7.53711C249.461 7.33691 249.237 7.18799 248.978 7.09033C248.724 6.98779 248.436 6.93652 248.114 6.93652C247.718 6.93652 247.369 7.01709 247.066 7.17822C246.769 7.33447 246.52 7.56885 246.319 7.88135C246.119 8.18896 245.968 8.57471 245.865 9.03857C245.768 9.50244 245.719 10.0371 245.719 10.6426V12.6494C245.719 13.1279 245.75 13.5649 245.814 13.9604C245.877 14.3511 245.975 14.6978 246.107 15.0005C246.239 15.3032 246.4 15.5596 246.59 15.7695C246.786 15.9746 247.01 16.1309 247.264 16.2383C247.523 16.3408 247.811 16.3921 248.128 16.3921C248.534 16.3921 248.885 16.3115 249.183 16.1504C249.481 15.9844 249.73 15.7427 249.93 15.4253C250.13 15.103 250.279 14.71 250.377 14.2461C250.475 13.7773 250.523 13.2451 250.523 12.6494Z" fill="#7D7D7D"/>
<path d="M361.083 6.29199V17H360.211V7.39795L357.311 8.47461V7.64697L360.937 6.29199H361.083ZM366.532 16.3115H366.723C367.499 16.3115 368.148 16.1992 368.671 15.9746C369.193 15.7451 369.611 15.4302 369.923 15.0298C370.241 14.6245 370.468 14.1509 370.604 13.6089C370.741 13.0669 370.81 12.4785 370.81 11.8438V10.3569C370.81 9.79541 370.749 9.30225 370.626 8.87744C370.504 8.45264 370.331 8.09863 370.106 7.81543C369.882 7.52734 369.616 7.31006 369.308 7.16357C369.005 7.01709 368.668 6.94385 368.297 6.94385C367.931 6.94385 367.599 7.02197 367.301 7.17822C367.008 7.33447 366.759 7.55176 366.554 7.83008C366.354 8.10352 366.198 8.41846 366.085 8.7749C365.978 9.12646 365.924 9.5 365.924 9.89551C365.924 10.2568 365.973 10.6084 366.071 10.9502C366.173 11.2871 366.322 11.5923 366.518 11.8657C366.713 12.1343 366.952 12.3491 367.235 12.5103C367.523 12.6665 367.855 12.7446 368.231 12.7446C368.656 12.7446 369.032 12.6641 369.359 12.5029C369.691 12.3418 369.972 12.1343 370.202 11.8804C370.436 11.6216 370.614 11.3433 370.736 11.0454C370.863 10.7427 370.932 10.4497 370.941 10.1665L371.381 10.1592C371.381 10.6035 371.298 11.0283 371.132 11.4336C370.971 11.834 370.741 12.1904 370.443 12.5029C370.15 12.8105 369.806 13.0547 369.411 13.2354C369.015 13.416 368.588 13.5063 368.129 13.5063C367.631 13.5063 367.189 13.4087 366.803 13.2134C366.422 13.0132 366.103 12.7446 365.844 12.4077C365.59 12.0659 365.397 11.6826 365.265 11.2578C365.133 10.833 365.067 10.3911 365.067 9.93213C365.067 9.41943 365.138 8.93848 365.28 8.48926C365.426 8.03516 365.639 7.63721 365.917 7.29541C366.195 6.94873 366.532 6.67773 366.928 6.48242C367.328 6.28711 367.78 6.18945 368.283 6.18945C368.854 6.18945 369.352 6.29443 369.777 6.50439C370.202 6.70947 370.553 7.00244 370.832 7.3833C371.115 7.76416 371.325 8.21338 371.461 8.73096C371.603 9.24854 371.674 9.81982 371.674 10.4448V11.2871C371.674 11.917 371.625 12.52 371.527 13.0962C371.43 13.6724 371.266 14.2046 371.037 14.6929C370.812 15.1763 370.509 15.5962 370.128 15.9526C369.748 16.3091 369.276 16.5874 368.715 16.7876C368.153 16.9829 367.489 17.0806 366.723 17.0806H366.525L366.532 16.3115ZM380.214 6.33594V6.84131L375.658 17H374.75L379.276 7.09033H373.205V6.33594H380.214ZM388.395 10.7524V12.5469C388.395 13.3281 388.322 14.0093 388.175 14.5903C388.029 15.1665 387.814 15.645 387.531 16.0259C387.252 16.4019 386.911 16.6826 386.505 16.8682C386.105 17.0537 385.646 17.1465 385.128 17.1465C384.718 17.1465 384.342 17.0879 384 16.9707C383.659 16.8535 383.354 16.6753 383.085 16.436C382.821 16.1919 382.597 15.8867 382.411 15.5205C382.226 15.1543 382.084 14.7246 381.986 14.2314C381.889 13.7334 381.84 13.1719 381.84 12.5469V10.7524C381.84 9.96631 381.913 9.2876 382.06 8.71631C382.211 8.14502 382.426 7.67139 382.704 7.29541C382.987 6.91943 383.332 6.64111 383.737 6.46045C384.142 6.2749 384.601 6.18213 385.114 6.18213C385.524 6.18213 385.9 6.24316 386.242 6.36523C386.588 6.48242 386.894 6.6582 387.157 6.89258C387.426 7.12695 387.65 7.42725 387.831 7.79346C388.017 8.15479 388.156 8.58203 388.249 9.0752C388.346 9.56836 388.395 10.1274 388.395 10.7524ZM387.523 12.6494V10.6426C387.523 10.1592 387.489 9.71973 387.421 9.32422C387.357 8.92871 387.262 8.58203 387.135 8.28418C387.008 7.98633 386.847 7.7373 386.652 7.53711C386.461 7.33691 386.237 7.18799 385.978 7.09033C385.724 6.98779 385.436 6.93652 385.114 6.93652C384.718 6.93652 384.369 7.01709 384.066 7.17822C383.769 7.33447 383.52 7.56885 383.319 7.88135C383.119 8.18896 382.968 8.57471 382.865 9.03857C382.768 9.50244 382.719 10.0371 382.719 10.6426V12.6494C382.719 13.1279 382.75 13.5649 382.814 13.9604C382.877 14.3511 382.975 14.6978 383.107 15.0005C383.239 15.3032 383.4 15.5596 383.59 15.7695C383.786 15.9746 384.01 16.1309 384.264 16.2383C384.523 16.3408 384.811 16.3921 385.128 16.3921C385.534 16.3921 385.885 16.3115 386.183 16.1504C386.481 15.9844 386.73 15.7427 386.93 15.4253C387.13 15.103 387.279 14.71 387.377 14.2461C387.475 13.7773 387.523 13.2451 387.523 12.6494Z" fill="#7D7D7D"/>
<path d="M488.083 6.29199V17H487.211V7.39795L484.311 8.47461V7.64697L487.937 6.29199H488.083ZM493.532 16.3115H493.723C494.499 16.3115 495.148 16.1992 495.671 15.9746C496.193 15.7451 496.611 15.4302 496.923 15.0298C497.241 14.6245 497.468 14.1509 497.604 13.6089C497.741 13.0669 497.81 12.4785 497.81 11.8438V10.3569C497.81 9.79541 497.749 9.30225 497.626 8.87744C497.504 8.45264 497.331 8.09863 497.106 7.81543C496.882 7.52734 496.616 7.31006 496.308 7.16357C496.005 7.01709 495.668 6.94385 495.297 6.94385C494.931 6.94385 494.599 7.02197 494.301 7.17822C494.008 7.33447 493.759 7.55176 493.554 7.83008C493.354 8.10352 493.198 8.41846 493.085 8.7749C492.978 9.12646 492.924 9.5 492.924 9.89551C492.924 10.2568 492.973 10.6084 493.071 10.9502C493.173 11.2871 493.322 11.5923 493.518 11.8657C493.713 12.1343 493.952 12.3491 494.235 12.5103C494.523 12.6665 494.855 12.7446 495.231 12.7446C495.656 12.7446 496.032 12.6641 496.359 12.5029C496.691 12.3418 496.972 12.1343 497.202 11.8804C497.436 11.6216 497.614 11.3433 497.736 11.0454C497.863 10.7427 497.932 10.4497 497.941 10.1665L498.381 10.1592C498.381 10.6035 498.298 11.0283 498.132 11.4336C497.971 11.834 497.741 12.1904 497.443 12.5029C497.15 12.8105 496.806 13.0547 496.411 13.2354C496.015 13.416 495.588 13.5063 495.129 13.5063C494.631 13.5063 494.189 13.4087 493.803 13.2134C493.422 13.0132 493.103 12.7446 492.844 12.4077C492.59 12.0659 492.397 11.6826 492.265 11.2578C492.133 10.833 492.067 10.3911 492.067 9.93213C492.067 9.41943 492.138 8.93848 492.28 8.48926C492.426 8.03516 492.639 7.63721 492.917 7.29541C493.195 6.94873 493.532 6.67773 493.928 6.48242C494.328 6.28711 494.78 6.18945 495.283 6.18945C495.854 6.18945 496.352 6.29443 496.777 6.50439C497.202 6.70947 497.553 7.00244 497.832 7.3833C498.115 7.76416 498.325 8.21338 498.461 8.73096C498.603 9.24854 498.674 9.81982 498.674 10.4448V11.2871C498.674 11.917 498.625 12.52 498.527 13.0962C498.43 13.6724 498.266 14.2046 498.037 14.6929C497.812 15.1763 497.509 15.5962 497.128 15.9526C496.748 16.3091 496.276 16.5874 495.715 16.7876C495.153 16.9829 494.489 17.0806 493.723 17.0806H493.525L493.532 16.3115ZM507.207 14.1729C507.207 14.8174 507.055 15.3618 506.752 15.8062C506.455 16.2505 506.049 16.585 505.537 16.8096C505.024 17.0342 504.45 17.1465 503.815 17.1465C503.176 17.1465 502.6 17.0342 502.087 16.8096C501.574 16.585 501.167 16.2505 500.864 15.8062C500.566 15.3618 500.417 14.8174 500.417 14.1729C500.417 13.748 500.5 13.3623 500.666 13.0156C500.837 12.6641 501.074 12.3613 501.376 12.1074C501.684 11.8486 502.043 11.6484 502.453 11.5068C502.863 11.3652 503.312 11.2944 503.801 11.2944C504.445 11.2944 505.024 11.4189 505.537 11.668C506.049 11.9121 506.455 12.249 506.752 12.6787C507.055 13.1084 507.207 13.6064 507.207 14.1729ZM506.328 14.1729C506.328 13.7188 506.218 13.3208 505.998 12.979C505.778 12.6372 505.478 12.3735 505.097 12.188C504.716 11.9976 504.284 11.9023 503.801 11.9023C503.312 11.9023 502.88 11.9976 502.504 12.188C502.128 12.3735 501.833 12.6372 501.618 12.979C501.403 13.3208 501.296 13.7188 501.296 14.1729C501.296 14.6465 501.401 15.0493 501.611 15.3813C501.826 15.7134 502.124 15.9648 502.504 16.1357C502.885 16.3066 503.322 16.3921 503.815 16.3921C504.309 16.3921 504.743 16.3066 505.119 16.1357C505.495 15.9648 505.791 15.7134 506.005 15.3813C506.22 15.0493 506.328 14.6465 506.328 14.1729ZM506.928 9.0752C506.928 9.59766 506.789 10.064 506.511 10.4741C506.237 10.8794 505.866 11.1992 505.397 11.4336C504.929 11.6631 504.399 11.7778 503.808 11.7778C503.212 11.7778 502.678 11.6631 502.204 11.4336C501.735 11.1992 501.364 10.8794 501.091 10.4741C500.822 10.064 500.688 9.59766 500.688 9.0752C500.688 8.45508 500.822 7.93262 501.091 7.50781C501.364 7.07812 501.735 6.75098 502.204 6.52637C502.673 6.30176 503.205 6.18945 503.801 6.18945C504.392 6.18945 504.921 6.30176 505.39 6.52637C505.864 6.75098 506.237 7.07812 506.511 7.50781C506.789 7.93262 506.928 8.45508 506.928 9.0752ZM506.057 9.06787C506.057 8.65283 505.957 8.28662 505.756 7.96924C505.561 7.65186 505.292 7.40283 504.951 7.22217C504.614 7.03662 504.23 6.94385 503.801 6.94385C503.366 6.94385 502.98 7.0293 502.644 7.2002C502.312 7.37109 502.048 7.61523 501.853 7.93262C501.662 8.25 501.567 8.62842 501.567 9.06787C501.567 9.49756 501.662 9.86865 501.853 10.1812C502.048 10.4888 502.314 10.728 502.651 10.8989C502.988 11.0698 503.374 11.1553 503.808 11.1553C504.243 11.1553 504.628 11.0698 504.965 10.8989C505.302 10.728 505.568 10.4888 505.764 10.1812C505.959 9.86865 506.057 9.49756 506.057 9.06787ZM515.395 10.7524V12.5469C515.395 13.3281 515.322 14.0093 515.175 14.5903C515.029 15.1665 514.814 15.645 514.531 16.0259C514.252 16.4019 513.911 16.6826 513.505 16.8682C513.105 17.0537 512.646 17.1465 512.128 17.1465C511.718 17.1465 511.342 17.0879 511 16.9707C510.659 16.8535 510.354 16.6753 510.085 16.436C509.821 16.1919 509.597 15.8867 509.411 15.5205C509.226 15.1543 509.084 14.7246 508.986 14.2314C508.889 13.7334 508.84 13.1719 508.84 12.5469V10.7524C508.84 9.96631 508.913 9.2876 509.06 8.71631C509.211 8.14502 509.426 7.67139 509.704 7.29541C509.987 6.91943 510.332 6.64111 510.737 6.46045C511.142 6.2749 511.601 6.18213 512.114 6.18213C512.524 6.18213 512.9 6.24316 513.242 6.36523C513.588 6.48242 513.894 6.6582 514.157 6.89258C514.426 7.12695 514.65 7.42725 514.831 7.79346C515.017 8.15479 515.156 8.58203 515.249 9.0752C515.346 9.56836 515.395 10.1274 515.395 10.7524ZM514.523 12.6494V10.6426C514.523 10.1592 514.489 9.71973 514.421 9.32422C514.357 8.92871 514.262 8.58203 514.135 8.28418C514.008 7.98633 513.847 7.7373 513.652 7.53711C513.461 7.33691 513.237 7.18799 512.978 7.09033C512.724 6.98779 512.436 6.93652 512.114 6.93652C511.718 6.93652 511.369 7.01709 511.066 7.17822C510.769 7.33447 510.52 7.56885 510.319 7.88135C510.119 8.18896 509.968 8.57471 509.865 9.03857C509.768 9.50244 509.719 10.0371 509.719 10.6426V12.6494C509.719 13.1279 509.75 13.5649 509.814 13.9604C509.877 14.3511 509.975 14.6978 510.107 15.0005C510.239 15.3032 510.4 15.5596 510.59 15.7695C510.786 15.9746 511.01 16.1309 511.264 16.2383C511.523 16.3408 511.811 16.3921 512.128 16.3921C512.534 16.3921 512.885 16.3115 513.183 16.1504C513.481 15.9844 513.73 15.7427 513.93 15.4253C514.13 15.103 514.279 14.71 514.377 14.2461C514.475 13.7773 514.523 13.2451 514.523 12.6494Z" fill="#7D7D7D"/>
<path d="M765.683 16.2456V17H759.011V16.3188L762.504 12.3564C762.939 11.8633 763.286 11.4312 763.544 11.0601C763.803 10.6841 763.989 10.3423 764.101 10.0347C764.218 9.72217 764.277 9.41943 764.277 9.12646C764.277 8.69678 764.191 8.31836 764.021 7.99121C763.854 7.66406 763.605 7.40771 763.273 7.22217C762.941 7.03662 762.531 6.94385 762.043 6.94385C761.555 6.94385 761.13 7.04883 760.769 7.25879C760.407 7.46875 760.129 7.76172 759.934 8.1377C759.743 8.50879 759.648 8.93115 759.648 9.40479H758.776C758.776 8.81885 758.906 8.28174 759.165 7.79346C759.428 7.30518 759.804 6.91699 760.292 6.62891C760.781 6.33594 761.364 6.18945 762.043 6.18945C762.688 6.18945 763.242 6.3042 763.706 6.53369C764.169 6.7583 764.526 7.08301 764.775 7.50781C765.029 7.93262 765.156 8.44531 765.156 9.0459C765.156 9.36816 765.097 9.69287 764.98 10.02C764.868 10.3472 764.711 10.6743 764.511 11.0015C764.316 11.3237 764.091 11.6436 763.837 11.9609C763.588 12.2783 763.327 12.5908 763.054 12.8984L760.08 16.2456H765.683ZM773.754 10.7524V12.5469C773.754 13.3281 773.681 14.0093 773.535 14.5903C773.388 15.1665 773.173 15.645 772.89 16.0259C772.612 16.4019 772.27 16.6826 771.865 16.8682C771.464 17.0537 771.005 17.1465 770.488 17.1465C770.078 17.1465 769.702 17.0879 769.36 16.9707C769.018 16.8535 768.713 16.6753 768.444 16.436C768.181 16.1919 767.956 15.8867 767.771 15.5205C767.585 15.1543 767.443 14.7246 767.346 14.2314C767.248 13.7334 767.199 13.1719 767.199 12.5469V10.7524C767.199 9.96631 767.272 9.2876 767.419 8.71631C767.57 8.14502 767.785 7.67139 768.063 7.29541C768.347 6.91943 768.691 6.64111 769.096 6.46045C769.501 6.2749 769.96 6.18213 770.473 6.18213C770.883 6.18213 771.259 6.24316 771.601 6.36523C771.948 6.48242 772.253 6.6582 772.517 6.89258C772.785 7.12695 773.01 7.42725 773.19 7.79346C773.376 8.15479 773.515 8.58203 773.608 9.0752C773.706 9.56836 773.754 10.1274 773.754 10.7524ZM772.883 12.6494V10.6426C772.883 10.1592 772.849 9.71973 772.78 9.32422C772.717 8.92871 772.622 8.58203 772.495 8.28418C772.368 7.98633 772.207 7.7373 772.011 7.53711C771.821 7.33691 771.596 7.18799 771.337 7.09033C771.083 6.98779 770.795 6.93652 770.473 6.93652C770.078 6.93652 769.729 7.01709 769.426 7.17822C769.128 7.33447 768.879 7.56885 768.679 7.88135C768.479 8.18896 768.327 8.57471 768.225 9.03857C768.127 9.50244 768.078 10.0371 768.078 10.6426V12.6494C768.078 13.1279 768.11 13.5649 768.173 13.9604C768.237 14.3511 768.334 14.6978 768.466 15.0005C768.598 15.3032 768.759 15.5596 768.95 15.7695C769.145 15.9746 769.37 16.1309 769.624 16.2383C769.882 16.3408 770.17 16.3921 770.488 16.3921C770.893 16.3921 771.245 16.3115 771.542 16.1504C771.84 15.9844 772.089 15.7427 772.29 15.4253C772.49 15.103 772.639 14.71 772.736 14.2461C772.834 13.7773 772.883 13.2451 772.883 12.6494ZM782.075 10.7524V12.5469C782.075 13.3281 782.001 14.0093 781.855 14.5903C781.708 15.1665 781.494 15.645 781.21 16.0259C780.932 16.4019 780.59 16.6826 780.185 16.8682C779.785 17.0537 779.326 17.1465 778.808 17.1465C778.398 17.1465 778.022 17.0879 777.68 16.9707C777.338 16.8535 777.033 16.6753 776.765 16.436C776.501 16.1919 776.276 15.8867 776.091 15.5205C775.905 15.1543 775.764 14.7246 775.666 14.2314C775.568 13.7334 775.52 13.1719 775.52 12.5469V10.7524C775.52 9.96631 775.593 9.2876 775.739 8.71631C775.891 8.14502 776.105 7.67139 776.384 7.29541C776.667 6.91943 777.011 6.64111 777.417 6.46045C777.822 6.2749 778.281 6.18213 778.793 6.18213C779.204 6.18213 779.58 6.24316 779.921 6.36523C780.268 6.48242 780.573 6.6582 780.837 6.89258C781.105 7.12695 781.33 7.42725 781.511 7.79346C781.696 8.15479 781.835 8.58203 781.928 9.0752C782.026 9.56836 782.075 10.1274 782.075 10.7524ZM781.203 12.6494V10.6426C781.203 10.1592 781.169 9.71973 781.101 9.32422C781.037 8.92871 780.942 8.58203 780.815 8.28418C780.688 7.98633 780.527 7.7373 780.332 7.53711C780.141 7.33691 779.917 7.18799 779.658 7.09033C779.404 6.98779 779.116 6.93652 778.793 6.93652C778.398 6.93652 778.049 7.01709 777.746 7.17822C777.448 7.33447 777.199 7.56885 776.999 7.88135C776.799 8.18896 776.647 8.57471 776.545 9.03857C776.447 9.50244 776.398 10.0371 776.398 10.6426V12.6494C776.398 13.1279 776.43 13.5649 776.494 13.9604C776.557 14.3511 776.655 14.6978 776.787 15.0005C776.918 15.3032 777.08 15.5596 777.27 15.7695C777.465 15.9746 777.69 16.1309 777.944 16.2383C778.203 16.3408 778.491 16.3921 778.808 16.3921C779.213 16.3921 779.565 16.3115 779.863 16.1504C780.161 15.9844 780.41 15.7427 780.61 15.4253C780.81 15.103 780.959 14.71 781.057 14.2461C781.154 13.7773 781.203 13.2451 781.203 12.6494ZM790.395 10.7524V12.5469C790.395 13.3281 790.322 14.0093 790.175 14.5903C790.029 15.1665 789.814 15.645 789.531 16.0259C789.252 16.4019 788.911 16.6826 788.505 16.8682C788.105 17.0537 787.646 17.1465 787.128 17.1465C786.718 17.1465 786.342 17.0879 786 16.9707C785.659 16.8535 785.354 16.6753 785.085 16.436C784.821 16.1919 784.597 15.8867 784.411 15.5205C784.226 15.1543 784.084 14.7246 783.986 14.2314C783.889 13.7334 783.84 13.1719 783.84 12.5469V10.7524C783.84 9.96631 783.913 9.2876 784.06 8.71631C784.211 8.14502 784.426 7.67139 784.704 7.29541C784.987 6.91943 785.332 6.64111 785.737 6.46045C786.142 6.2749 786.601 6.18213 787.114 6.18213C787.524 6.18213 787.9 6.24316 788.242 6.36523C788.588 6.48242 788.894 6.6582 789.157 6.89258C789.426 7.12695 789.65 7.42725 789.831 7.79346C790.017 8.15479 790.156 8.58203 790.249 9.0752C790.346 9.56836 790.395 10.1274 790.395 10.7524ZM789.523 12.6494V10.6426C789.523 10.1592 789.489 9.71973 789.421 9.32422C789.357 8.92871 789.262 8.58203 789.135 8.28418C789.008 7.98633 788.847 7.7373 788.652 7.53711C788.461 7.33691 788.237 7.18799 787.978 7.09033C787.724 6.98779 787.436 6.93652 787.114 6.93652C786.718 6.93652 786.369 7.01709 786.066 7.17822C785.769 7.33447 785.52 7.56885 785.319 7.88135C785.119 8.18896 784.968 8.57471 784.865 9.03857C784.768 9.50244 784.719 10.0371 784.719 10.6426V12.6494C784.719 13.1279 784.75 13.5649 784.814 13.9604C784.877 14.3511 784.975 14.6978 785.107 15.0005C785.239 15.3032 785.4 15.5596 785.59 15.7695C785.786 15.9746 786.01 16.1309 786.264 16.2383C786.523 16.3408 786.811 16.3921 787.128 16.3921C787.534 16.3921 787.885 16.3115 788.183 16.1504C788.481 15.9844 788.73 15.7427 788.93 15.4253C789.13 15.103 789.279 14.71 789.377 14.2461C789.475 13.7773 789.523 13.2451 789.523 12.6494Z" fill="#7D7D7D"/>
<path d="M612.083 6.29199V17H611.211V7.39795L608.311 8.47461V7.64697L611.937 6.29199H612.083ZM617.532 16.3115H617.723C618.499 16.3115 619.148 16.1992 619.671 15.9746C620.193 15.7451 620.611 15.4302 620.923 15.0298C621.241 14.6245 621.468 14.1509 621.604 13.6089C621.741 13.0669 621.81 12.4785 621.81 11.8438V10.3569C621.81 9.79541 621.749 9.30225 621.626 8.87744C621.504 8.45264 621.331 8.09863 621.106 7.81543C620.882 7.52734 620.616 7.31006 620.308 7.16357C620.005 7.01709 619.668 6.94385 619.297 6.94385C618.931 6.94385 618.599 7.02197 618.301 7.17822C618.008 7.33447 617.759 7.55176 617.554 7.83008C617.354 8.10352 617.198 8.41846 617.085 8.7749C616.978 9.12646 616.924 9.5 616.924 9.89551C616.924 10.2568 616.973 10.6084 617.071 10.9502C617.173 11.2871 617.322 11.5923 617.518 11.8657C617.713 12.1343 617.952 12.3491 618.235 12.5103C618.523 12.6665 618.855 12.7446 619.231 12.7446C619.656 12.7446 620.032 12.6641 620.359 12.5029C620.691 12.3418 620.972 12.1343 621.202 11.8804C621.436 11.6216 621.614 11.3433 621.736 11.0454C621.863 10.7427 621.932 10.4497 621.941 10.1665L622.381 10.1592C622.381 10.6035 622.298 11.0283 622.132 11.4336C621.971 11.834 621.741 12.1904 621.443 12.5029C621.15 12.8105 620.806 13.0547 620.411 13.2354C620.015 13.416 619.588 13.5063 619.129 13.5063C618.631 13.5063 618.189 13.4087 617.803 13.2134C617.422 13.0132 617.103 12.7446 616.844 12.4077C616.59 12.0659 616.397 11.6826 616.265 11.2578C616.133 10.833 616.067 10.3911 616.067 9.93213C616.067 9.41943 616.138 8.93848 616.28 8.48926C616.426 8.03516 616.639 7.63721 616.917 7.29541C617.195 6.94873 617.532 6.67773 617.928 6.48242C618.328 6.28711 618.78 6.18945 619.283 6.18945C619.854 6.18945 620.352 6.29443 620.777 6.50439C621.202 6.70947 621.553 7.00244 621.832 7.3833C622.115 7.76416 622.325 8.21338 622.461 8.73096C622.603 9.24854 622.674 9.81982 622.674 10.4448V11.2871C622.674 11.917 622.625 12.52 622.527 13.0962C622.43 13.6724 622.266 14.2046 622.037 14.6929C621.812 15.1763 621.509 15.5962 621.128 15.9526C620.748 16.3091 620.276 16.5874 619.715 16.7876C619.153 16.9829 618.489 17.0806 617.723 17.0806H617.525L617.532 16.3115ZM625.853 16.3115H626.043C626.819 16.3115 627.469 16.1992 627.991 15.9746C628.514 15.7451 628.931 15.4302 629.244 15.0298C629.561 14.6245 629.788 14.1509 629.925 13.6089C630.062 13.0669 630.13 12.4785 630.13 11.8438V10.3569C630.13 9.79541 630.069 9.30225 629.947 8.87744C629.825 8.45264 629.651 8.09863 629.427 7.81543C629.202 7.52734 628.936 7.31006 628.628 7.16357C628.326 7.01709 627.989 6.94385 627.618 6.94385C627.251 6.94385 626.919 7.02197 626.622 7.17822C626.329 7.33447 626.08 7.55176 625.875 7.83008C625.674 8.10352 625.518 8.41846 625.406 8.7749C625.298 9.12646 625.245 9.5 625.245 9.89551C625.245 10.2568 625.293 10.6084 625.391 10.9502C625.494 11.2871 625.643 11.5923 625.838 11.8657C626.033 12.1343 626.272 12.3491 626.556 12.5103C626.844 12.6665 627.176 12.7446 627.552 12.7446C627.977 12.7446 628.353 12.6641 628.68 12.5029C629.012 12.3418 629.292 12.1343 629.522 11.8804C629.756 11.6216 629.935 11.3433 630.057 11.0454C630.184 10.7427 630.252 10.4497 630.262 10.1665L630.701 10.1592C630.701 10.6035 630.618 11.0283 630.452 11.4336C630.291 11.834 630.062 12.1904 629.764 12.5029C629.471 12.8105 629.126 13.0547 628.731 13.2354C628.335 13.416 627.908 13.5063 627.449 13.5063C626.951 13.5063 626.509 13.4087 626.124 13.2134C625.743 13.0132 625.423 12.7446 625.164 12.4077C624.91 12.0659 624.717 11.6826 624.585 11.2578C624.454 10.833 624.388 10.3911 624.388 9.93213C624.388 9.41943 624.458 8.93848 624.6 8.48926C624.747 8.03516 624.959 7.63721 625.237 7.29541C625.516 6.94873 625.853 6.67773 626.248 6.48242C626.648 6.28711 627.1 6.18945 627.603 6.18945C628.174 6.18945 628.672 6.29443 629.097 6.50439C629.522 6.70947 629.874 7.00244 630.152 7.3833C630.435 7.76416 630.645 8.21338 630.782 8.73096C630.923 9.24854 630.994 9.81982 630.994 10.4448V11.2871C630.994 11.917 630.945 12.52 630.848 13.0962C630.75 13.6724 630.586 14.2046 630.357 14.6929C630.132 15.1763 629.83 15.5962 629.449 15.9526C629.068 16.3091 628.597 16.5874 628.035 16.7876C627.474 16.9829 626.81 17.0806 626.043 17.0806H625.845L625.853 16.3115ZM639.395 10.7524V12.5469C639.395 13.3281 639.322 14.0093 639.175 14.5903C639.029 15.1665 638.814 15.645 638.531 16.0259C638.252 16.4019 637.911 16.6826 637.505 16.8682C637.105 17.0537 636.646 17.1465 636.128 17.1465C635.718 17.1465 635.342 17.0879 635 16.9707C634.659 16.8535 634.354 16.6753 634.085 16.436C633.821 16.1919 633.597 15.8867 633.411 15.5205C633.226 15.1543 633.084 14.7246 632.986 14.2314C632.889 13.7334 632.84 13.1719 632.84 12.5469V10.7524C632.84 9.96631 632.913 9.2876 633.06 8.71631C633.211 8.14502 633.426 7.67139 633.704 7.29541C633.987 6.91943 634.332 6.64111 634.737 6.46045C635.142 6.2749 635.601 6.18213 636.114 6.18213C636.524 6.18213 636.9 6.24316 637.242 6.36523C637.588 6.48242 637.894 6.6582 638.157 6.89258C638.426 7.12695 638.65 7.42725 638.831 7.79346C639.017 8.15479 639.156 8.58203 639.249 9.0752C639.346 9.56836 639.395 10.1274 639.395 10.7524ZM638.523 12.6494V10.6426C638.523 10.1592 638.489 9.71973 638.421 9.32422C638.357 8.92871 638.262 8.58203 638.135 8.28418C638.008 7.98633 637.847 7.7373 637.652 7.53711C637.461 7.33691 637.237 7.18799 636.978 7.09033C636.724 6.98779 636.436 6.93652 636.114 6.93652C635.718 6.93652 635.369 7.01709 635.066 7.17822C634.769 7.33447 634.52 7.56885 634.319 7.88135C634.119 8.18896 633.968 8.57471 633.865 9.03857C633.768 9.50244 633.719 10.0371 633.719 10.6426V12.6494C633.719 13.1279 633.75 13.5649 633.814 13.9604C633.877 14.3511 633.975 14.6978 634.107 15.0005C634.239 15.3032 634.4 15.5596 634.59 15.7695C634.786 15.9746 635.01 16.1309 635.264 16.2383C635.523 16.3408 635.811 16.3921 636.128 16.3921C636.534 16.3921 636.885 16.3115 637.183 16.1504C637.481 15.9844 637.73 15.7427 637.93 15.4253C638.13 15.103 638.279 14.71 638.377 14.2461C638.475 13.7773 638.523 13.2451 638.523 12.6494Z" fill="#7D7D7D"/>
<path d="M1018.68 16.2456V17H1012.01V16.3188L1015.5 12.3564C1015.94 11.8633 1016.29 11.4312 1016.54 11.0601C1016.8 10.6841 1016.99 10.3423 1017.1 10.0347C1017.22 9.72217 1017.28 9.41943 1017.28 9.12646C1017.28 8.69678 1017.19 8.31836 1017.02 7.99121C1016.85 7.66406 1016.61 7.40771 1016.27 7.22217C1015.94 7.03662 1015.53 6.94385 1015.04 6.94385C1014.55 6.94385 1014.13 7.04883 1013.77 7.25879C1013.41 7.46875 1013.13 7.76172 1012.93 8.1377C1012.74 8.50879 1012.65 8.93115 1012.65 9.40479H1011.78C1011.78 8.81885 1011.91 8.28174 1012.16 7.79346C1012.43 7.30518 1012.8 6.91699 1013.29 6.62891C1013.78 6.33594 1014.36 6.18945 1015.04 6.18945C1015.69 6.18945 1016.24 6.3042 1016.71 6.53369C1017.17 6.7583 1017.53 7.08301 1017.77 7.50781C1018.03 7.93262 1018.16 8.44531 1018.16 9.0459C1018.16 9.36816 1018.1 9.69287 1017.98 10.02C1017.87 10.3472 1017.71 10.6743 1017.51 11.0015C1017.32 11.3237 1017.09 11.6436 1016.84 11.9609C1016.59 12.2783 1016.33 12.5908 1016.05 12.8984L1013.08 16.2456H1018.68ZM1026.75 10.7524V12.5469C1026.75 13.3281 1026.68 14.0093 1026.53 14.5903C1026.39 15.1665 1026.17 15.645 1025.89 16.0259C1025.61 16.4019 1025.27 16.6826 1024.86 16.8682C1024.46 17.0537 1024.01 17.1465 1023.49 17.1465C1023.08 17.1465 1022.7 17.0879 1022.36 16.9707C1022.02 16.8535 1021.71 16.6753 1021.44 16.436C1021.18 16.1919 1020.96 15.8867 1020.77 15.5205C1020.58 15.1543 1020.44 14.7246 1020.35 14.2314C1020.25 13.7334 1020.2 13.1719 1020.2 12.5469V10.7524C1020.2 9.96631 1020.27 9.2876 1020.42 8.71631C1020.57 8.14502 1020.79 7.67139 1021.06 7.29541C1021.35 6.91943 1021.69 6.64111 1022.1 6.46045C1022.5 6.2749 1022.96 6.18213 1023.47 6.18213C1023.88 6.18213 1024.26 6.24316 1024.6 6.36523C1024.95 6.48242 1025.25 6.6582 1025.52 6.89258C1025.79 7.12695 1026.01 7.42725 1026.19 7.79346C1026.38 8.15479 1026.52 8.58203 1026.61 9.0752C1026.71 9.56836 1026.75 10.1274 1026.75 10.7524ZM1025.88 12.6494V10.6426C1025.88 10.1592 1025.85 9.71973 1025.78 9.32422C1025.72 8.92871 1025.62 8.58203 1025.49 8.28418C1025.37 7.98633 1025.21 7.7373 1025.01 7.53711C1024.82 7.33691 1024.6 7.18799 1024.34 7.09033C1024.08 6.98779 1023.8 6.93652 1023.47 6.93652C1023.08 6.93652 1022.73 7.01709 1022.43 7.17822C1022.13 7.33447 1021.88 7.56885 1021.68 7.88135C1021.48 8.18896 1021.33 8.57471 1021.22 9.03857C1021.13 9.50244 1021.08 10.0371 1021.08 10.6426V12.6494C1021.08 13.1279 1021.11 13.5649 1021.17 13.9604C1021.24 14.3511 1021.33 14.6978 1021.47 15.0005C1021.6 15.3032 1021.76 15.5596 1021.95 15.7695C1022.15 15.9746 1022.37 16.1309 1022.62 16.2383C1022.88 16.3408 1023.17 16.3921 1023.49 16.3921C1023.89 16.3921 1024.24 16.3115 1024.54 16.1504C1024.84 15.9844 1025.09 15.7427 1025.29 15.4253C1025.49 15.103 1025.64 14.71 1025.74 14.2461C1025.83 13.7773 1025.88 13.2451 1025.88 12.6494ZM1032.72 6.29199V17H1031.85V7.39795L1028.95 8.47461V7.64697L1032.58 6.29199H1032.72ZM1043.4 10.7524V12.5469C1043.4 13.3281 1043.32 14.0093 1043.18 14.5903C1043.03 15.1665 1042.81 15.645 1042.53 16.0259C1042.25 16.4019 1041.91 16.6826 1041.51 16.8682C1041.1 17.0537 1040.65 17.1465 1040.13 17.1465C1039.72 17.1465 1039.34 17.0879 1039 16.9707C1038.66 16.8535 1038.35 16.6753 1038.08 16.436C1037.82 16.1919 1037.6 15.8867 1037.41 15.5205C1037.23 15.1543 1037.08 14.7246 1036.99 14.2314C1036.89 13.7334 1036.84 13.1719 1036.84 12.5469V10.7524C1036.84 9.96631 1036.91 9.2876 1037.06 8.71631C1037.21 8.14502 1037.43 7.67139 1037.7 7.29541C1037.99 6.91943 1038.33 6.64111 1038.74 6.46045C1039.14 6.2749 1039.6 6.18213 1040.11 6.18213C1040.52 6.18213 1040.9 6.24316 1041.24 6.36523C1041.59 6.48242 1041.89 6.6582 1042.16 6.89258C1042.43 7.12695 1042.65 7.42725 1042.83 7.79346C1043.02 8.15479 1043.16 8.58203 1043.25 9.0752C1043.35 9.56836 1043.4 10.1274 1043.4 10.7524ZM1042.52 12.6494V10.6426C1042.52 10.1592 1042.49 9.71973 1042.42 9.32422C1042.36 8.92871 1042.26 8.58203 1042.14 8.28418C1042.01 7.98633 1041.85 7.7373 1041.65 7.53711C1041.46 7.33691 1041.24 7.18799 1040.98 7.09033C1040.72 6.98779 1040.44 6.93652 1040.11 6.93652C1039.72 6.93652 1039.37 7.01709 1039.07 7.17822C1038.77 7.33447 1038.52 7.56885 1038.32 7.88135C1038.12 8.18896 1037.97 8.57471 1037.87 9.03857C1037.77 9.50244 1037.72 10.0371 1037.72 10.6426V12.6494C1037.72 13.1279 1037.75 13.5649 1037.81 13.9604C1037.88 14.3511 1037.98 14.6978 1038.11 15.0005C1038.24 15.3032 1038.4 15.5596 1038.59 15.7695C1038.79 15.9746 1039.01 16.1309 1039.26 16.2383C1039.52 16.3408 1039.81 16.3921 1040.13 16.3921C1040.53 16.3921 1040.89 16.3115 1041.18 16.1504C1041.48 15.9844 1041.73 15.7427 1041.93 15.4253C1042.13 15.103 1042.28 14.71 1042.38 14.2461C1042.47 13.7773 1042.52 13.2451 1042.52 12.6494Z" fill="#7D7D7D"/>
<circle cx="236.5" cy="37.5" r="3.5" fill="#7D7D7D"/>
<circle cx="373.5" cy="37.5" r="3.5" fill="#7D7D7D"/>
<circle cx="499.5" cy="37.5" r="3.5" fill="#7D7D7D"/>
<circle cx="624.5" cy="37.5" r="3.5" fill="#7D7D7D"/>
<circle cx="774.5" cy="37.5" r="3.5" fill="#7D7D7D"/>
<circle cx="1028.5" cy="37.5" r="3.5" fill="#7D7D7D"/>
<circle cx="143.5" cy="37.5" r="4.5" fill="white"/>
</svg>
